<?xml version="1.0" standalone="no"?>
<svg xmlns:xlink="http://www.w3.org/1999/xlink" id="wave" style="transform:rotate(180deg); transition: 0.3s" viewBox="0 0 1440 490" version="1.1" xmlns="http://www.w3.org/2000/svg"><defs><linearGradient id="sw-gradient-0" x1="0" x2="0" y1="1" y2="0"><stop stop-color="rgba(0, 191, 255, 1)" offset="0%"/><stop stop-color="rgba(11, 106.224, 255, 1)" offset="100%"/></linearGradient></defs><path style="transform:translate(0, 0px); opacity:1" fill="url(#sw-gradient-0)" d="M0,441L40,441C80,441,160,441,240,375.7C320,310,400,180,480,106.2C560,33,640,16,720,24.5C800,33,880,65,960,138.8C1040,212,1120,327,1200,359.3C1280,392,1360,343,1440,334.8C1520,327,1600,359,1680,326.7C1760,294,1840,196,1920,130.7C2000,65,2080,33,2160,81.7C2240,131,2320,261,2400,334.8C2480,408,2560,425,2640,383.8C2720,343,2800,245,2880,228.7C2960,212,3040,278,3120,269.5C3200,261,3280,180,3360,130.7C3440,82,3520,65,3600,114.3C3680,163,3760,278,3840,294C3920,310,4000,229,4080,212.3C4160,196,4240,245,4320,220.5C4400,196,4480,98,4560,89.8C4640,82,4720,163,4800,196C4880,229,4960,212,5040,212.3C5120,212,5200,229,5280,261.3C5360,294,5440,343,5520,310.3C5600,278,5680,163,5720,106.2L5760,49L5760,490L5720,490C5680,490,5600,490,5520,490C5440,490,5360,490,5280,490C5200,490,5120,490,5040,490C4960,490,4880,490,4800,490C4720,490,4640,490,4560,490C4480,490,4400,490,4320,490C4240,490,4160,490,4080,490C4000,490,3920,490,3840,490C3760,490,3680,490,3600,490C3520,490,3440,490,3360,490C3280,490,3200,490,3120,490C3040,490,2960,490,2880,490C2800,490,2720,490,2640,490C2560,490,2480,490,2400,490C2320,490,2240,490,2160,490C2080,490,2000,490,1920,490C1840,490,1760,490,1680,490C1600,490,1520,490,1440,490C1360,490,1280,490,1200,490C1120,490,1040,490,960,490C880,490,800,490,720,490C640,490,560,490,480,490C400,490,320,490,240,490C160,490,80,490,40,490L0,490Z"/></svg>