<?xml version="1.0" standalone="no"?>
<svg xmlns:xlink="http://www.w3.org/1999/xlink" id="wave" style="transform:rotate(180deg); transition: 0.3s" viewBox="0 0 1440 230" version="1.1" xmlns="http://www.w3.org/2000/svg"><defs><linearGradient id="sw-gradient-0" x1="0" x2="0" y1="1" y2="0"><stop stop-color="rgba(0, 191, 255, 1)" offset="0%"/><stop stop-color="rgba(0, 36.894, 127.82, 1)" offset="100%"/></linearGradient></defs><path style="transform:translate(0, 0px); opacity:1" fill="url(#sw-gradient-0)" d="M0,0L40,34.5C80,69,160,138,240,164.8C320,192,400,176,480,141.8C560,107,640,54,720,61.3C800,69,880,138,960,172.5C1040,207,1120,207,1200,199.3C1280,192,1360,176,1440,161C1520,146,1600,130,1680,130.3C1760,130,1840,146,1920,153.3C2000,161,2080,161,2160,157.2C2240,153,2320,146,2400,122.7C2480,100,2560,61,2640,49.8C2720,38,2800,54,2880,57.5C2960,61,3040,54,3120,76.7C3200,100,3280,153,3360,157.2C3440,161,3520,115,3600,103.5C3680,92,3760,115,3840,103.5C3920,92,4000,46,4080,30.7C4160,15,4240,31,4320,49.8C4400,69,4480,92,4560,95.8C4640,100,4720,84,4800,72.8C4880,61,4960,54,5040,49.8C5120,46,5200,46,5280,42.2C5360,38,5440,31,5520,42.2C5600,54,5680,84,5720,99.7L5760,115L5760,230L5720,230C5680,230,5600,230,5520,230C5440,230,5360,230,5280,230C5200,230,5120,230,5040,230C4960,230,4880,230,4800,230C4720,230,4640,230,4560,230C4480,230,4400,230,4320,230C4240,230,4160,230,4080,230C4000,230,3920,230,3840,230C3760,230,3680,230,3600,230C3520,230,3440,230,3360,230C3280,230,3200,230,3120,230C3040,230,2960,230,2880,230C2800,230,2720,230,2640,230C2560,230,2480,230,2400,230C2320,230,2240,230,2160,230C2080,230,2000,230,1920,230C1840,230,1760,230,1680,230C1600,230,1520,230,1440,230C1360,230,1280,230,1200,230C1120,230,1040,230,960,230C880,230,800,230,720,230C640,230,560,230,480,230C400,230,320,230,240,230C160,230,80,230,40,230L0,230Z"/></svg>