<?xml version="1.0" standalone="no"?>
<svg xmlns:xlink="http://www.w3.org/1999/xlink" id="wave" style="transform:rotate(180deg); transition: 0.3s" viewBox="0 0 1440 490" version="1.1" xmlns="http://www.w3.org/2000/svg"><defs><linearGradient id="sw-gradient-0" x1="0" x2="0" y1="1" y2="0"><stop stop-color="rgba(0, 191, 255, 1)" offset="0%"/><stop stop-color="rgba(21.244, 79.966, 159.695, 1)" offset="100%"/></linearGradient></defs><path style="transform:translate(0, 0px); opacity:1" fill="url(#sw-gradient-0)" d="M0,196L80,236.8C160,278,320,359,480,334.8C640,310,800,180,960,114.3C1120,49,1280,49,1440,98C1600,147,1760,245,1920,285.8C2080,327,2240,310,2400,318.5C2560,327,2720,359,2880,383.8C3040,408,3200,425,3360,408.3C3520,392,3680,343,3840,277.7C4000,212,4160,131,4320,147C4480,163,4640,278,4800,310.3C4960,343,5120,294,5280,228.7C5440,163,5600,82,5760,89.8C5920,98,6080,196,6240,269.5C6400,343,6560,392,6720,392C6880,392,7040,343,7200,277.7C7360,212,7520,131,7680,114.3C7840,98,8000,147,8160,163.3C8320,180,8480,163,8640,147C8800,131,8960,114,9120,98C9280,82,9440,65,9600,114.3C9760,163,9920,278,10080,277.7C10240,278,10400,163,10560,106.2C10720,49,10880,49,11040,89.8C11200,131,11360,212,11440,253.2L11520,294L11520,490L11440,490C11360,490,11200,490,11040,490C10880,490,10720,490,10560,490C10400,490,10240,490,10080,490C9920,490,9760,490,9600,490C9440,490,9280,490,9120,490C8960,490,8800,490,8640,490C8480,490,8320,490,8160,490C8000,490,7840,490,7680,490C7520,490,7360,490,7200,490C7040,490,6880,490,6720,490C6560,490,6400,490,6240,490C6080,490,5920,490,5760,490C5600,490,5440,490,5280,490C5120,490,4960,490,4800,490C4640,490,4480,490,4320,490C4160,490,4000,490,3840,490C3680,490,3520,490,3360,490C3200,490,3040,490,2880,490C2720,490,2560,490,2400,490C2240,490,2080,490,1920,490C1760,490,1600,490,1440,490C1280,490,1120,490,960,490C800,490,640,490,480,490C320,490,160,490,80,490L0,490Z"/></svg>